<?xml version="1.0" encoding="UTF-8"?>
<svg width="61px" height="63px" viewBox="0 0 61 63" version="1.1" xmlns="http://www.w3.org/2000/svg" xmlns:xlink="http://www.w3.org/1999/xlink">
    <!-- Generator: Sketch 61.2 (89653) - https://sketch.com -->
    <title>SPRING20_SUSTAINABILITY_LP_RECYCLE_ICON</title>
    <desc>Created with Sketch.</desc>
    <defs>
        <polygon id="path-1" points="0 0.220395 13.7897696 0.220395 13.7897696 18.48 0 18.48"></polygon>
        <polygon id="path-3" points="0.348850327 0.147864125 14.1795537 0.147864125 14.1795537 17.639843 0.348850327 17.639843"></polygon>
    </defs>
    <g id="Page-1" stroke="none" stroke-width="1" fill="none" fill-rule="evenodd">
        <g id="ECO_LP_MOBILE" transform="translate(-210.000000, -102.000000)">
            <g id="SPRING20_SUSTAINABILITY_LP_RECYCLE_ICON" transform="translate(210.000000, 102.000000)">
                <g id="Group-3" transform="translate(0.000000, 44.100000)">
                    <mask id="mask-2" fill="white">
                        <use xlink:href="#path-1"></use>
                    </mask>
                    <g id="Clip-2"></g>
                    <path d="M13.5473567,4.1933325 C13.3045967,4.198845 13.0618367,4.2027825 12.8166967,4.2027825 C11.42757,4.2027825 9.82345,4.0925325 8.45971,3.2703825 C8.15110333,3.083745 7.84963667,2.86482 7.55055,2.60652 C7.42123667,2.5112325 7.29747667,2.4041325 7.18403,2.2891575 C6.76673667,1.861545 6.40577,1.3835325 6.11065,0.86772 C6.07257,0.8023575 6.02973,0.7236075 5.98292333,0.63462 C5.95198333,0.576345 5.92104333,0.5172825 5.89169,0.45822 L5.84329667,0.35427 C5.80363,0.2715825 5.71715667,0.2259075 5.62592333,0.220395 C5.53310333,0.22197 5.44980333,0.2763075 5.41251667,0.36057 L0.40341,11.6415075 C-0.09877,12.81252 -0.133676667,14.1174075 0.307416667,15.31677 C0.75327,16.534245 1.63625,17.50287 2.79451667,18.0423075 C3.41966333,18.332895 4.08289,18.4801575 4.76595,18.4801575 C4.95159,18.4801575 5.13961,18.468345 5.32525,18.446295 C6.99125,18.241545 8.44701667,17.1351075 9.12611,15.5553825 L13.77187,4.5193575 C13.8020167,4.4453325 13.7940833,4.3618575 13.74807,4.2957075 C13.7036433,4.230345 13.6274833,4.1917575 13.5473567,4.1933325" id="Fill-1" fill="#FEFEFE" mask="url(#mask-2)"></path>
                </g>
                <g id="Group-6" transform="translate(46.200000, 44.940000)">
                    <mask id="mask-4" fill="white">
                        <use xlink:href="#path-3"></use>
                    </mask>
                    <g id="Clip-5"></g>
                    <path d="M13.7688467,10.8029551 L9.07209726,0.287323826 C9.03628674,0.20801687 8.95909516,0.15383687 8.87076253,0.148340348 C8.77924674,0.142843826 8.69807621,0.185245565 8.65192042,0.259056 C7.42162989,2.22602557 5.36212674,3.39992557 3.14346568,3.39992557 L0.587389895,3.39285861 L0.586594105,3.39285861 C0.507015158,3.39285861 0.433006737,3.43211948 0.388442526,3.49729252 C0.344674105,3.56246557 0.336716211,3.64569861 0.366956211,3.71872383 L5.03187411,14.7345386 C5.70988674,16.3026177 7.16936463,17.4027073 8.84052253,17.6060786 C9.02673726,17.6288499 9.21454358,17.639843 9.40155411,17.639843 C10.0859331,17.639843 10.7520088,17.4930073 11.3806825,17.2024769 C12.5417394,16.664603 13.4266573,15.700356 13.8730952,14.4871951 C14.3155541,13.2905238 14.2789478,11.9831369 13.7688467,10.8029551" id="Fill-4" fill="#FEFEFE" mask="url(#mask-4)"></path>
                </g>
                <path d="M21.384106,21.98551 C22.0395434,22.4233737 22.7860138,22.6549972 23.544358,22.6549972 C25.0277996,22.6549972 26.4194167,21.7673714 27.1801356,20.332416 L30.5269826,13.8961372 L33.0933207,18.7340549 L30.7668347,20.651295 C30.5451892,20.8337382 30.4462403,21.1510307 30.5182751,21.4484924 C30.5903099,21.7467474 30.8182881,21.9640928 31.0921786,21.9950288 L40.6712218,23.0960338 C40.6941779,23.0992068 40.7163425,23.1 40.7392986,23.1 C41.0527687,23.1 41.3282424,22.8517186 41.3899865,22.4987307 L43.247059,11.9733445 C43.3008872,11.6719166 43.1837318,11.3641429 42.9525872,11.1991507 C42.7214426,11.0333654 42.4238044,11.0452639 42.2029505,11.2269138 L39.9390001,13.0925939 L34.2221296,2.3141669 C33.4796172,0.915700114 32.169534,0.051077992 30.7130065,0.00189765109 C30.665511,0.000311188484 30.6188071,0.000311188484 30.5713117,0.000311188484 C30.5143171,-0.00048204282 30.4573226,0.000311188484 30.4019112,0.00189765109 C30.0354045,0.014589352 29.6712727,0.0812207815 29.3166399,0.200998708 C29.2596453,0.22003626 29.2050255,0.247799355 29.1559469,0.282701533 C28.8978882,0.386614834 28.6540782,0.515118305 28.4284747,0.666625484 C27.3582436,1.38212012 26.5460712,3.01379691 25.7600213,4.59074075 C25.6468238,4.81601844 25.5352095,5.04129613 25.4235951,5.26181443 C25.3927231,5.32130678 25.313564,5.46646811 25.2304469,5.62035498 C25.1030007,5.85673791 24.9430994,6.15181995 24.818028,6.3937555 C24.7729073,6.48259741 24.7364941,6.55398822 24.705622,6.61903319 L19.9172878,15.4754607 C19.3394264,16.5653605 19.1739838,17.8424629 19.4510407,19.0719714 C19.7280976,20.30148 20.414407,21.3358536 21.384106,21.98551" id="Fill-7" fill="#FEFEFE"></path>
                <path d="M38.3757381,46.0379257 L49.5295032,46.0679576 L49.539781,46.0679576 C50.9826235,46.0679576 52.3100385,45.252356 53.0935217,43.882746 C53.1188209,43.8384885 53.1433295,43.7934408 53.1670474,43.7476027 C53.2002525,43.6867487 53.2287141,43.6330075 53.2532227,43.5832179 C53.4311073,43.225997 53.5670903,42.8419056 53.6587997,42.4404273 C53.6730305,42.3748314 53.6801459,42.3084453 53.6785647,42.2436397 C53.7315348,41.9433213 53.7592058,41.6430029 53.76,41.3482167 C53.760787,40.801321 53.63271,40.2188614 53.4303167,39.6190149 C53.1164491,38.6927697 52.6231156,37.724638 52.137688,36.776264 C52.0230512,36.5526059 51.9099956,36.329738 51.7993118,36.1092411 C51.7684785,36.0491774 51.6981152,35.8990182 51.6230083,35.7393752 C51.5083715,35.4951689 51.3660638,35.1916893 51.2451022,34.9482733 C51.2016193,34.8589681 51.1652517,34.7886304 51.1320466,34.7254054 L46.837515,25.5917742 C46.3030703,24.4790155 45.4144375,23.6657849 44.3352704,23.3022415 C43.2545221,22.9386982 42.1136883,23.0683093 41.1214871,23.6665752 C40.4510595,24.0704244 39.8905251,24.6686903 39.5015506,25.3973576 C38.7394135,26.8222894 38.7022554,28.6139258 39.4050975,30.0783732 L42.5840945,36.5873796 L38.6484947,36.5771055 L37.5883019,36.5739443 L37.3210796,33.3589567 C37.2957805,33.0523158 37.1044556,32.7954645 36.8403957,32.7124818 C36.5755451,32.6294991 36.2933014,32.7361911 36.1296475,32.9827684 L30.3717179,41.6169226 C30.1669528,41.9243538 30.2049016,42.355864 30.4578931,42.6135055 L37.5305882,49.7879543 C37.6547122,49.9144041 37.8144131,49.98 37.9749047,49.98 C38.0768919,49.98 38.1780885,49.9539197 38.2721697,49.9009688 C38.5164647,49.7642449 38.6611442,49.47262 38.6358451,49.1675597 L38.3757381,46.0379257 Z" id="Fill-9" fill="#FEFEFE"></path>
                <path d="M25.5712706,36.7074373 L18.9225746,36.7010936 L21.2946624,31.8164402 L22.7563082,32.5094901 L23.9670447,33.0820095 C24.2211401,33.2025399 24.5158588,33.135931 24.7086208,32.9139013 C24.9005863,32.6926646 24.9507681,32.361206 24.8344737,32.0812899 L20.7546102,22.271542 C20.6088439,21.9226382 20.2496056,21.75453 19.9246184,21.88299 L10.867194,25.4687697 C10.6075229,25.5718549 10.4306916,25.8414624 10.4227262,26.1499251 C10.4147609,26.4568019 10.5756614,26.7383038 10.8297567,26.8588342 L13.4296541,28.091099 L8.07533112,39.1188385 C7.37995415,40.5485512 7.38871606,42.255801 8.09922723,43.6847207 C8.12312335,43.7322985 8.14701947,43.7782903 8.17250866,43.8242822 C8.20357361,43.8853404 8.23304548,43.9400548 8.26092429,43.9884256 C8.45846551,44.3333646 8.69663013,44.6513428 8.97143546,44.9328448 C9.01604155,44.9788366 9.06542685,45.0168989 9.11799831,45.0470315 C9.33067374,45.2428934 9.55529723,45.4133805 9.78708955,45.552942 C10.6035402,46.0469581 11.7354195,46.1476644 12.9262426,46.1476644 C13.3412385,46.1476644 13.7634032,46.13577 14.1815853,46.1238755 C14.412581,46.1167389 14.6427803,46.1103952 14.8697934,46.1056374 C14.9319233,46.1048444 15.0832654,46.1064303 15.2449624,46.1080163 C15.4926855,46.1103952 15.8009454,46.11436 16.0526511,46.1103952 C16.1450494,46.1096022 16.2191274,46.1072233 16.2860365,46.1048444 L25.5641018,46.2 L25.5680845,46.2 C26.7023534,46.2 27.7689167,45.7075698 28.5718262,44.8131073 C29.3763288,43.9170589 29.8192035,42.7252352 29.82,41.45808 C29.82,40.6024727 29.6144934,39.7627246 29.2241902,39.0300266 C28.4611075,37.597935 27.0615917,36.7074373 25.5712706,36.7074373" id="Fill-11" fill="#FEFEFE"></path>
            </g>
        </g>
    </g>
</svg>